<svg width="800" height="800" viewBox="0 0 800 800" fill="none" xmlns="http://www.w3.org/2000/svg">
<g clip-path="url(#clip0_706_5)">
<path d="M0 400C0 179.44 179.44 0 400 0C489.078 0 573.39 28.6591 643.825 82.88L550.872 203.627C507.322 170.103 455.15 152.381 400 152.381C263.463 152.381 152.381 263.463 152.381 400C152.381 536.537 263.463 647.619 400 647.619C509.97 647.619 603.421 575.57 635.627 476.19H400V323.81H800V400C800 620.56 620.56 800 400 800C179.44 800 0 620.56 0 400Z" fill="white"/>
</g>
<defs>
<clipPath id="clip0_706_5">
<rect width="800" height="800" fill="white"/>
</clipPath>
</defs>
</svg>
